HIERARCHY
ROOT hip
{
  OFFSET 0 0 0
  CHANNELS 6 Xposition Yposition Zposition Zrotation Yrotation Xrotation
  JOINT abdomen
  {
    OFFSET 0 20.6881 -0.73152
    CHANNELS 3 Zrotation Xrotation Yrotation
    JOINT chest
    {
      OFFSET 0 11.7043 -0.48768
      CHANNELS 3 Zrotation Xrotation Yrotation
      JOINT neck
      {
        OFFSET 0 22.1894 -2.19456
        CHANNELS 3 Zrotation Xrotation Yrotation
        JOINT head
        {
          OFFSET -0.24384 7.07133 1.2192
          CHANNELS 3 Zrotation Xrotation Yrotation
          JOINT leftEye
          {
            OFFSET 4.14528 8.04674 8.04672
            CHANNELS 3 Zrotation Xrotation Yrotation
            End Site
            {
              OFFSET 1 0 0
            }
          }
          JOINT rightEye
          {
            OFFSET -3.6576 8.04674 8.04672
            CHANNELS 3 Zrotation Xrotation Yrotation
            End Site
            {
              OFFSET 1 0 0
            }
          }
        }
      }
      JOINT rCollar
      {
        OFFSET -2.68224 19.2634 -4.8768
        CHANNELS 3 Zrotation Xrotation Yrotation
        JOINT rShldr
        {
          OFFSET -8.77824 -1.95073 1.46304
          CHANNELS 3 Zrotation Xrotation Yrotation
          JOINT rForeArm
          {
            OFFSET -28.1742 -1.7115 0.48768
            CHANNELS 3 Zrotation Xrotation Yrotation
            JOINT rHand
            {
              OFFSET -22.5879 0.773209 7.07136
              CHANNELS 3 Zrotation Xrotation Yrotation
              JOINT rThumb1
              {
                OFFSET -1.2192 -0.487915 3.41376
                CHANNELS 3 Zrotation Xrotation Yrotation
                JOINT rThumb2
                {
                  OFFSET -3.37035 -0.52449 3.41376
                  CHANNELS 3 Zrotation Xrotation Yrotation
                  End Site
                  {
                    OFFSET -1.78271 -1.18214 1.43049
                  }
                }
              }
              JOINT rIndex1
              {
                OFFSET -7.75947 0.938293 5.60832
                CHANNELS 3 Zrotation Xrotation Yrotation
                JOINT rIndex2
                {
                  OFFSET -2.54057 -0.884171 1.56538
                  CHANNELS 3 Zrotation Xrotation Yrotation
                  End Site
                  {
                    OFFSET -1.62519 -0.234802 1.16502
                  }
                }
              }
              JOINT rMid1
              {
                OFFSET -8.24714 1.18213 3.41376
                CHANNELS 3 Zrotation Xrotation Yrotation
                JOINT rMid2
                {
                  OFFSET -3.10165 -0.590103 1.0647
                  CHANNELS 3 Zrotation Xrotation Yrotation
                  End Site
                  {
                    OFFSET -2.48547 -0.328903 0.83742
                  }
                }
              }
              JOINT rRing1
              {
                OFFSET -8.82822 0.546677 1.51678
                CHANNELS 3 Zrotation Xrotation Yrotation
                JOINT rRing2
                {
                  OFFSET -2.60934 -0.819778 -0.0198488
                  CHANNELS 3 Zrotation Xrotation Yrotation
                  End Site
                  {
                    OFFSET -2.33842 -0.294052 0.168128
                  }
                }
              }
              JOINT rPinky1
              {
                OFFSET -8.27202 -0.0477905 -0.4584
                CHANNELS 3 Zrotation Xrotation Yrotation
                JOINT rPinky2
                {
                  OFFSET -1.82734 -0.647385 -0.700984
                  CHANNELS 3 Zrotation Xrotation Yrotation
                  End Site
                  {
                    OFFSET -1.69225 -0.51767 -0.607171
                  }
                }
              }
            }
          }
        }
      }
      JOINT lCollar
      {
        OFFSET 2.68224 19.2634 -4.8768
        CHANNELS 3 Zrotation Xrotation Yrotation
        JOINT lShldr
        {
          OFFSET 8.77824 -1.95073 1.46304
          CHANNELS 3 Zrotation Xrotation Yrotation
          JOINT lForeArm
          {
            OFFSET 28.1742 -1.7115 0.48768
            CHANNELS 3 Zrotation Xrotation Yrotation
            JOINT lHand
            {
              OFFSET 22.5879 0.773209 7.07136
              CHANNELS 3 Zrotation Xrotation Yrotation
              JOINT lThumb1
              {
                OFFSET 1.2192 -0.487915 3.41376
                CHANNELS 3 Zrotation Xrotation Yrotation
                JOINT lThumb2
                {
                  OFFSET 3.37035 -0.52449 3.41376
                  CHANNELS 3 Zrotation Xrotation Yrotation
                  End Site
                  {
                    OFFSET 1.78271 -1.18214 1.43049
                  }
                }
              }
              JOINT lIndex1
              {
                OFFSET 7.75947 0.938293 5.60832
                CHANNELS 3 Zrotation Xrotation Yrotation
                JOINT lIndex2
                {
                  OFFSET 2.54057 -0.884171 1.56538
                  CHANNELS 3 Zrotation Xrotation Yrotation
                  End Site
                  {
                    OFFSET 1.62519 -0.234802 1.16502
                  }
                }
              }
              JOINT lMid1
              {
                OFFSET 8.24714 1.18213 3.41376
                CHANNELS 3 Zrotation Xrotation Yrotation
                JOINT lMid2
                {
                  OFFSET 3.10165 -0.590103 1.0647
                  CHANNELS 3 Zrotation Xrotation Yrotation
                  End Site
                  {
                    OFFSET 2.48547 -0.328903 0.83742
                  }
                }
              }
              JOINT lRing1
              {
                OFFSET 8.82822 0.546677 1.51678
                CHANNELS 3 Zrotation Xrotation Yrotation
                JOINT lRing2
                {
                  OFFSET 2.60934 -0.819778 -0.0198488
                  CHANNELS 3 Zrotation Xrotation Yrotation
                  End Site
                  {
                    OFFSET 2.33842 -0.294052 0.168128
                  }
                }
              }
              JOINT lPinky1
              {
                OFFSET 8.27202 -0.0477905 -0.4584
                CHANNELS 3 Zrotation Xrotation Yrotation
                JOINT lPinky2
                {
                  OFFSET 1.82734 -0.647385 -0.700984
                  CHANNELS 3 Zrotation Xrotation Yrotation
                  End Site
                  {
                    OFFSET 1.69225 -0.51767 -0.607171
                  }
                }
              }
            }
          }
        }
      }
    }
  }
  JOINT rButtock
  {
    OFFSET -8.77824 4.35084 1.2192
    CHANNELS 3 Zrotation Xrotation Yrotation
    JOINT rThigh
    {
      OFFSET 0 -1.70687 -2.19456
      CHANNELS 3 Zrotation Xrotation Yrotation
      JOINT rShin
      {
        OFFSET 0 -36.8199 0.73152
        CHANNELS 3 Zrotation Xrotation Yrotation
        JOINT rFoot
        {
          OFFSET 0.73152 -45.1104 -5.12064
          CHANNELS 3 Zrotation Xrotation Yrotation
          End Site
          {
            OFFSET -1.1221 -3.69964 12.103
          }
        }
      }
    }
  }
  JOINT lButtock
  {
    OFFSET 8.77824 4.35084 1.2192
    CHANNELS 3 Zrotation Xrotation Yrotation
    JOINT lThigh
    {
      OFFSET 0 -1.70687 -2.19456
      CHANNELS 3 Zrotation Xrotation Yrotation
      JOINT lShin
      {
        OFFSET 0 -36.8199 0.73152
        CHANNELS 3 Zrotation Xrotation Yrotation
        JOINT lFoot
        {
          OFFSET -0.73152 -45.1104 -5.12064
          CHANNELS 3 Zrotation Xrotation Yrotation
          End Site
          {
            OFFSET 1.1221 -3.69964 12.103
          }
        }
      }
    }
  }
}
MOTION
Frames:	4
Frame Time:	0.00833333
59.0852 84.8839 -50.1012 0.0 0.0 0.0 -0.194077 -0.000752047 -0.00553943 -0.0535364 -0.00112971 -0.00927449 1.42314e-15 7.95139e-16 -2.17421e-17 4.26455e-15 3.18055e-15 -6.05672e-17 -0.0 0.0 0.0 -0.0 0.0 0.0 8.43533e-16 -5.82377e-19 1.49089e-16 1.66731e-14 5.59082e-17 7.95139e-16 2.61799e-13 -7.71284e-14 0.0 2.975e-12 7.5886e-14 -4.77083e-14 7.01819e-12 -5.15255e-15 -9.54166e-14 1.211e-11 -1.27222e-14 -1.76521e-13 7.02465e-12 -3.97569e-15 -9.54166e-14 7.73091 5.47488 0.417314 7.01834e-12 -5.1684e-15 -9.54166e-14 2.90554 0.965183 0.102902 7.02522e-12 -5.1684e-15 -9.70069e-14 10.2786 0.731801 0.0259123 7.01133e-12 -1.98785e-15 -9.54166e-14 2.22167 -0.733487 -0.20892 6.47398e-16 -1.94126e-19 -1.49089e-16 1.35492e-14 -5.59082e-17 -1.19271e-15 2.60408e-13 7.65321e-14 -2.22639e-14 2.97241e-12 -8.38126e-14 -2.8625e-14 7.01516e-12 -1.60523e-14 -9.85972e-14 1.21167e-11 -2.8625e-14 -1.7016e-13 7.00915e-12 -1.47101e-14 -9.22361e-14 -7.73091 5.47488 -0.417314 7.01576e-12 -1.61016e-14 -9.85972e-14 -2.90554 0.965183 -0.102902 7.00584e-12 -1.58034e-14 -9.78021e-14 -10.2786 0.731801 -0.0259123 7.01909e-12 -1.43125e-14 -1.01778e-13 -2.22167 -0.733487 0.20892 -2.03217e-16 0.0 -3.88251e-19 0.355857 -2.82714 -0.0340696 -0.00665509 -0.431854 -0.0584475 -0.502548 3.25829 0.1238 2.03217e-16 0.0 3.88251e-19 -0.651358 -3.58303 0.052557 0.00445999 0.937455 0.0381202 0.504966 2.64491 -0.111592
59.0987 83.4706 -50.0259 -1.0159 1.4785 -1.3006 0.735612 2.88629 0.74104 -0.0677122 -1.11227 0.236952 -3.38075 -0.76808 -1.94325 4.38003 2.21016 -3.02963 -0.0 0.0 0.0 -0.0 0.0 0.0 -3.34842e-15 -4.78311e-15 2.01502e-16 22.6491 5.20265 0.257401 -4.19751 -1.90274 6.56102 0.00882854 2.08607 0.292477 1.70501e-10 -3.33671e-10 5.12797e-11 2.95154e-10 -5.77303e-10 8.68695e-11 1.70508e-10 -3.33671e-10 5.12798e-11 7.73091 5.47488 0.417314 1.70503e-10 -3.3367e-10 5.12812e-11 2.90554 0.965183 0.102902 1.70508e-10 -3.33669e-10 5.12813e-11 10.2786 0.731801 0.0259123 1.70496e-10 -3.33666e-10 5.12832e-11 2.22167 -0.733487 -0.20892 -3.47804e-15 -4.78381e-15 -3.99899e-17 -22.0229 6.09727 0.77433 4.6267 -2.19004 -7.12866 -0.00402128 1.40744 -0.197588 1.39848e-10 -6.18067e-12 -1.26819e-11 2.41753e-10 -1.10851e-11 -2.23821e-11 1.39843e-10 -6.17669e-12 -1.26728e-11 -7.73091 5.47488 -0.417314 1.3985e-10 -6.17702e-12 -1.2682e-11 -2.90554 0.965183 -0.102902 1.3984e-10 -6.17762e-12 -1.26808e-11 -10.2786 0.731801 -0.0259123 1.3985e-10 -6.17692e-12 -1.26844e-11 -2.22167 -0.733487 0.20892 -2.03217e-16 0.0 -3.88251e-19 2.32366 -3.71975 -0.328983 0.0245598 6.53881 0.0807064 -0.587611 -1.62316 -0.732093 2.03217e-16 0.0 3.88251e-19 0.439275 -10.0079 -0.396864 0.00638451 13.285 -0.131744 0.428634 0.786296 -0.922518
59.0988 83.4684 -49.8692 -1.0466 1.5593 -1.1989 1.63455 5.93584 1.52931 -0.0680153 -2.28771 0.495758 -7.00928 -1.57828 -3.99821 9.26634 4.52439 -6.24675 -0.0 0.0 0.0 -0.0 0.0 0.0 -8.93274e-15 -9.44133e-15 4.03783e-17 46.541 10.6885 0.533104 -8.15942 -3.82748 13.5124 -0.00508647 4.3006 0.604287 3.56394e-10 -6.98232e-10 1.10524e-10 6.16975e-10 -1.208e-09 1.87317e-10 3.56401e-10 -6.98232e-10 1.10524e-10 7.73091 5.47488 0.417314 3.56397e-10 -6.98228e-10 1.10527e-10 2.90554 0.965183 0.102902 3.56401e-10 -6.98228e-10 1.10529e-10 10.2786 0.731801 0.0259123 3.5639e-10 -6.98225e-10 1.10531e-10 2.22167 -0.733487 -0.20892 -8.98951e-15 -9.44321e-15 -1.3977e-16 -45.4856 12.5495 1.61049 8.93208 -4.39371 -14.7009 0.00228961 2.88999 -0.406123 2.92747e-10 -3.38592e-14 -1.77254e-11 5.06115e-10 -8.56761e-13 -3.16529e-11 2.92744e-10 -2.6916e-14 -1.77133e-11 -7.73091 5.47488 -0.417314 2.92752e-10 -2.60694e-14 -1.77256e-11 -2.90554 0.965183 -0.102902 2.92741e-10 -2.76628e-14 -1.77239e-11 -10.2786 0.731801 -0.0259123 2.92747e-10 -2.7851e-14 -1.77272e-11 -2.22167 -0.733487 0.20892 -2.03217e-16 0.0 -3.88251e-19 4.39372 -4.6834 -0.642811 0.0197461 13.929 0.233584 -0.837746 -6.78141 -1.6522 2.03217e-16 0.0 3.88251e-19 1.47747 -16.7874 -0.903978 0.0963504 26.3823 -0.33997 0.287835 -1.18486 -1.80003
59.1011 83.4798 -49.7168 -1.0463 1.6051 -1.0487 2.36713 8.65446 2.25709 -0.0673729 -3.33432 0.730508 -10.2983 -2.29364 -5.8339 13.8419 6.55614 -9.14242 -0.0 0.0 0.0 -0.0 0.0 0.0 -1.17323e-14 -1.43482e-14 3.0633e-16 67.8026 15.6067 0.798461 -11.3089 -5.40944 19.7638 -0.0377301 6.25754 0.882107 4.97468e-10 -1.001e-09 1.5403e-10 8.61243e-10 -1.73188e-09 2.60962e-10 4.97475e-10 -1.001e-09 1.5403e-10 7.73091 5.47488 0.417314 4.97471e-10 -1.001e-09 1.54034e-10 2.90554 0.965183 0.102902 4.97474e-10 -1.001e-09 1.54038e-10 10.2786 0.731801 0.0259123 4.97464e-10 -1.001e-09 1.5404e-10 2.22167 -0.733487 -0.20892 -1.17289e-14 -1.4351e-14 1.78207e-16 -66.5852 18.2781 2.43265 12.2795 -6.16418 -21.5007 0.017125 4.22213 -0.594198 4.05513e-10 -1.85099e-11 -3.78486e-11 7.01024e-10 -3.3198e-11 -6.6806e-11 4.0551e-10 -1.85007e-11 -3.7834e-11 -7.73091 5.47488 -0.417314 4.05519e-10 -1.84988e-11 -3.78488e-11 -2.90554 0.965183 -0.102902 4.05508e-10 -1.85012e-11 -3.78468e-11 -10.2786 0.731801 -0.0259123 4.0551e-10 -1.85021e-11 -3.78496e-11 -2.22167 -0.733487 0.20892 -2.03217e-16 0.0 -3.88251e-19 6.23157 -5.50445 -0.921062 -0.0198177 20.4797 0.381552 -1.20135 -11.376 -2.49158 2.03217e-16 0.0 3.88251e-19 2.29559 -22.8523 -1.38621 0.277982 37.9788 -0.584706 0.118075 -2.92774 -2.54768
